<mxfile host="app.diagrams.net" modified="2020-12-03T14:42:59.733Z" agent="5.0 (X11; Linux x86_64) AppleWebKit/537.36 (KHTML, like Gecko) Chrome/87.0.4280.66 Safari/537.36" etag="Vmah1Uo9GrberBWEr1ob" version="13.10.6" type="gitlab">
  <diagram name="Page-1" id="03018318-947c-dd8e-b7a3-06fadd420f32">
    <mxGraphModel dx="1276" dy="572" grid="1" gridSize="10" guides="1" tooltips="1" connect="1" arrows="1" fold="1" page="1" pageScale="1" pageWidth="1100" pageHeight="850" background="#ffffff" math="0" shadow="0">
      <root>
        <mxCell id="0" />
        <mxCell id="1" parent="0" />
        <mxCell id="677b7b8949515195-1" value="" style="whiteSpace=wrap;html=1;rounded=0;shadow=0;labelBackgroundColor=none;strokeColor=#000000;strokeWidth=1;fillColor=none;fontFamily=Verdana;fontSize=12;fontColor=#000000;align=center;comic=1;" parent="1" vertex="1">
          <mxGeometry x="20" y="20" width="1060" height="810" as="geometry" />
        </mxCell>
        <mxCell id="Aam5W-eCRWhEiTQZQ4iA-13" value="Login" style="text;html=1;points=[];align=left;verticalAlign=top;spacingTop=-4;fontSize=18;fontFamily=Verdana" vertex="1" parent="1">
          <mxGeometry x="680" y="95" width="60" height="20" as="geometry" />
        </mxCell>
        <mxCell id="Aam5W-eCRWhEiTQZQ4iA-14" value="Predictions" style="text;html=1;points=[];align=left;verticalAlign=top;spacingTop=-4;fontSize=18;fontFamily=Verdana" vertex="1" parent="1">
          <mxGeometry x="820" y="95" width="60" height="20" as="geometry" />
        </mxCell>
        <mxCell id="Aam5W-eCRWhEiTQZQ4iA-15" value="Sign Out" style="text;html=1;points=[];align=left;verticalAlign=top;spacingTop=-4;fontSize=18;fontFamily=Verdana" vertex="1" parent="1">
          <mxGeometry x="980" y="95" width="60" height="20" as="geometry" />
        </mxCell>
        <mxCell id="Aam5W-eCRWhEiTQZQ4iA-19" value="LOGO" style="whiteSpace=wrap;html=1;rounded=0;shadow=0;labelBackgroundColor=none;strokeWidth=1;fontFamily=Verdana;fontSize=28;align=center;comic=1;" vertex="1" parent="1">
          <mxGeometry x="40" y="60" width="190" height="50" as="geometry" />
        </mxCell>
        <mxCell id="Aam5W-eCRWhEiTQZQ4iA-20" value="&lt;b&gt;&lt;font style=&quot;font-size: 33px&quot;&gt;Signup&lt;/font&gt;&lt;/b&gt;" style="text;html=1;resizable=0;autosize=1;align=center;verticalAlign=middle;points=[];fillColor=none;strokeColor=none;rounded=0;" vertex="1" parent="1">
          <mxGeometry x="270" y="195" width="130" height="30" as="geometry" />
        </mxCell>
        <mxCell id="Aam5W-eCRWhEiTQZQ4iA-21" value="" style="html=1;shadow=0;dashed=0;shape=mxgraph.bootstrap.rrect;rSize=5;strokeColor=#999999;fillColor=#ffffff;fontColor=#777777;whiteSpace=wrap;align=left;verticalAlign=middle;fontStyle=0;fontSize=14;spacing=15;" vertex="1" parent="1">
          <mxGeometry x="290" y="260" width="650" height="40" as="geometry" />
        </mxCell>
        <mxCell id="Aam5W-eCRWhEiTQZQ4iA-22" value="Username" style="strokeColor=none;fillColor=none;fontColor=#777777;whiteSpace=wrap;align=left;verticalAlign=middle;fontStyle=0;fontSize=14;spacing=15;" vertex="1" parent="1">
          <mxGeometry x="140" y="260" width="150" height="40" as="geometry" />
        </mxCell>
        <mxCell id="Aam5W-eCRWhEiTQZQ4iA-23" value="" style="html=1;shadow=0;dashed=0;shape=mxgraph.bootstrap.rrect;rSize=5;strokeColor=#999999;fillColor=#ffffff;fontColor=#777777;whiteSpace=wrap;align=left;verticalAlign=middle;fontStyle=0;fontSize=14;spacing=15;" vertex="1" parent="1">
          <mxGeometry x="290" y="310" width="650" height="40" as="geometry" />
        </mxCell>
        <mxCell id="Aam5W-eCRWhEiTQZQ4iA-24" value="Password" style="strokeColor=none;fillColor=none;fontColor=#777777;whiteSpace=wrap;align=left;verticalAlign=middle;fontStyle=0;fontSize=14;spacing=15;" vertex="1" parent="1">
          <mxGeometry x="140" y="310" width="150" height="40" as="geometry" />
        </mxCell>
        <mxCell id="Aam5W-eCRWhEiTQZQ4iA-25" value="Register" style="html=1;shadow=0;dashed=0;shape=mxgraph.bootstrap.rrect;rSize=5;strokeColor=none;strokeWidth=1;fillColor=#0085FC;fontColor=#FFFFFF;whiteSpace=wrap;align=center;verticalAlign=middle;spacingLeft=0;fontStyle=0;fontSize=18;spacing=5;" vertex="1" parent="1">
          <mxGeometry x="510" y="425" width="80" height="40" as="geometry" />
        </mxCell>
      </root>
    </mxGraphModel>
  </diagram>
</mxfile>
